<svg width="24" height="24" viewBox="0 0 24 24" fill="none" xmlns="http://www.w3.org/2000/svg">
<mask id="mask0_244_1447" style="mask-type:alpha" maskUnits="userSpaceOnUse" x="0" y="0" width="24" height="24">
<rect width="24" height="24" fill="#D9D9D9"/>
</mask>
<g mask="url(#mask0_244_1447)">
<path d="M12.025 17.4C12.3916 17.4 12.7043 17.2706 12.963 17.012C13.221 16.754 13.35 16.4416 13.35 16.075V13.35H16.1C16.4666 13.35 16.775 13.225 17.025 12.975C17.275 12.725 17.4 12.4083 17.4 12.025C17.4 11.6583 17.271 11.3456 17.013 11.087C16.7543 10.829 16.4416 10.7 16.075 10.7H13.35V7.89995C13.35 7.53328 13.225 7.22495 12.975 6.97495C12.725 6.72495 12.4083 6.59995 12.025 6.59995C11.6583 6.59995 11.346 6.72895 11.088 6.98695C10.8293 7.24562 10.7 7.55828 10.7 7.92495V10.7H7.89995C7.53328 10.7 7.22495 10.825 6.97495 11.075C6.72495 11.325 6.59995 11.6416 6.59995 12.025C6.59995 12.3916 6.72928 12.704 6.98795 12.962C7.24595 13.2206 7.55828 13.35 7.92495 13.35H10.7V16.1C10.7 16.4666 10.825 16.775 11.075 17.025C11.325 17.275 11.6416 17.4 12.025 17.4ZM12 22.7999C10.5 22.7999 9.09562 22.5166 7.78695 21.95C6.47895 21.3833 5.33762 20.6126 4.36295 19.638C3.38762 18.6626 2.61662 17.5206 2.04995 16.212C1.48328 14.904 1.19995 13.5 1.19995 12C1.19995 10.5 1.48328 9.09162 2.04995 7.77495C2.61662 6.45828 3.38762 5.31262 4.36295 4.33795C5.33762 3.36262 6.47895 2.59562 7.78695 2.03695C9.09562 1.47895 10.5 1.19995 12 1.19995C13.5 1.19995 14.9083 1.47895 16.225 2.03695C17.5416 2.59562 18.6876 3.36262 19.663 4.33795C20.6376 5.31262 21.4039 6.45828 21.962 7.77495C22.5206 9.09162 22.7999 10.5 22.7999 12C22.7999 13.5 22.5206 14.904 21.962 16.212C21.4039 17.5206 20.6376 18.6626 19.663 19.638C18.6876 20.6126 17.5416 21.3833 16.225 21.95C14.9083 22.5166 13.5 22.7999 12 22.7999ZM12 20.15C14.2666 20.15 16.1916 19.3583 17.775 17.775C19.3583 16.1916 20.15 14.2666 20.15 12C20.15 9.73328 19.3583 7.80828 17.775 6.22495C16.1916 4.64162 14.2666 3.84995 12 3.84995C9.73328 3.84995 7.80828 4.64162 6.22495 6.22495C4.64162 7.80828 3.84995 9.73328 3.84995 12C3.84995 14.2666 4.64162 16.1916 6.22495 17.775C7.80828 19.3583 9.73328 20.15 12 20.15Z" fill="#535AF1"/>
</g>
</svg>
