<svg width="30" height="31" viewBox="0 0 30 31" fill="none" xmlns="http://www.w3.org/2000/svg">
<path d="M15 19.1875C14.8326 19.1875 14.6706 19.1562 14.5141 19.0937C14.3567 19.0312 14.2257 18.9479 14.1211 18.8437L8.34529 13.0938C8.1151 12.8646 8 12.5729 8 12.2187C8 11.8646 8.1151 11.5729 8.34529 11.3437C8.57549 11.1146 8.86846 11 9.22422 11C9.57997 11 9.87294 11.1146 10.1031 11.3437L15 16.2188L19.8969 11.3437C20.1271 11.1146 20.42 11 20.7758 11C21.1315 11 21.4245 11.1146 21.6547 11.3437C21.8849 11.5729 22 11.8646 22 12.2187C22 12.5729 21.8849 12.8646 21.6547 13.0938L15.8789 18.8437C15.7534 18.9687 15.6173 19.0571 15.4709 19.1087C15.3244 19.1612 15.1674 19.1875 15 19.1875Z" fill="black"/>
</svg>
